<svg xmlns="http://www.w3.org/2000/svg" viewBox="0 0 500 500"><g id="freepik--Character--inject-152"><path d="M265.26,84.69c7-8.63,25.47-8.44,30.14-3.29,6.2-3.68,15.23-1.24,18.73,5.07L334,89.64c3.38.54,6.92,1.15,9.61,3.26s4.14,6.25,2.17,9c7,1.4,10.29,11.52,5.45,16.77a7.42,7.42,0,0,1-.49,10.8,74.39,74.39,0,0,1,13.85,21.09c1.41,3.24,2.6,6.88,1.56,10.26s-5.26,5.91-8.24,4a8.73,8.73,0,0,1,.94,9.36c3.31-.11,4.59,5,2.45,7.49s-5.82,3-9.14,3.11-6.91.15-9.52,2.19a3,3,0,0,0,1.2,2c5.95,4.3,8,12.18,4.09,18.39-.37.57-.71,1.1-1,1.58-1.77,2.83-6.38,5.6-9.24,7.3-7.27,4.33-11.77,3.85-20.07,5.53,2.59,5.26-10.31,18-26.52,7.12-30.54,10.09-52.71,14.52-84.81,16.43-4.58.27-10.12,0-12.39-4-3.66,1.2-7.77-.3-10.66-2.83s-4.83-6-6.69-9.34A20,20,0,0,1,161.11,212a24.7,24.7,0,0,1-10.3-17c-7.85-1.92-12.67-11.68-9.41-19.08a87.47,87.47,0,0,1,8-27.57c-5.32-.83-7.7-7.8-5.82-12.85s6.48-8.48,10.85-11.62c-3.87,1.27-7.57-3.47-6.86-7.48s4.11-6.93,7.48-9.22A73.53,73.53,0,0,1,170.91,99c1.48-7,9.87-15.4,16.17-18.83,25.41-13.83,43.52-18,78.18,4.49" style="fill:#263238"></path><path d="M195.38,138.58c1.06-18.1,13-40.34,31-38.52l56.34,14a10.62,10.62,0,0,1,9.54,10.72l-1.38,120.6A33.08,33.08,0,0,1,264,277.46h0a33.08,33.08,0,0,1-39.28-30.91c-.4-8.26-.71-14.47-.71-14.43s-23.13-3.74-28.05-33.87C193.55,183.27,194.2,158.68,195.38,138.58Z" style="fill:#936760"></path><path d="M207.35,162.52a3.86,3.86,0,0,0,3.74,3.89,3.7,3.7,0,0,0,4-3.5,3.85,3.85,0,0,0-3.74-3.89A3.69,3.69,0,0,0,207.35,162.52Z" style="fill:#263238"></path><path d="M200.77,151.34c.48.5,3.4-1.68,7.56-1.68s7.22,2.06,7.67,1.55c.22-.23-.27-1.14-1.61-2.1a10.6,10.6,0,0,0-6.14-1.87,10.18,10.18,0,0,0-6,2C201,150.2,200.53,151.12,200.77,151.34Z" style="fill:#263238"></path><path d="M244.74,161.67a3.88,3.88,0,0,0,3.75,3.89,3.7,3.7,0,0,0,4-3.51,3.88,3.88,0,0,0-3.74-3.89A3.72,3.72,0,0,0,244.74,161.67Z" style="fill:#263238"></path><path d="M241.67,151.94c.49.5,3.41-1.68,7.57-1.68s7.22,2.06,7.67,1.54c.22-.22-.27-1.13-1.61-2.09a10.6,10.6,0,0,0-6.14-1.87,10.25,10.25,0,0,0-6,2C241.87,150.8,241.44,151.72,241.67,151.94Z" style="fill:#263238"></path><path d="M226.71,182.87c0-.24-2.57-.68-6.77-1.19-1.06-.11-2.07-.32-2.25-1s.19-1.91.7-3.15c1-2.58,2-5.28,3.1-8.11,4.32-11.54,7.43-21,7-21.19s-4.34,9-8.66,20.58c-1,2.85-2,5.56-3,8.15-.4,1.21-1.08,2.59-.53,4.18a2.66,2.66,0,0,0,1.75,1.54,7,7,0,0,0,1.81.25C224.07,183.09,226.69,183.1,226.71,182.87Z" style="fill:#263238"></path><path d="M224.05,232.12a76.67,76.67,0,0,0,40.33-11s-9.71,20.76-39.9,18.07Z" style="fill:#6f4c47"></path><path d="M239.76,134.82c.41,1.13,4.57.57,9.45,1.14s8.84,1.88,9.48.86c.29-.48-.4-1.54-2-2.63a16.53,16.53,0,0,0-14.42-1.53C240.48,133.39,239.58,134.28,239.76,134.82Z" style="fill:#263238"></path><path d="M202.17,137c.74.94,3.6-.06,7-.12s6.37.61,7-.38c.29-.48-.17-1.43-1.45-2.32a10.23,10.23,0,0,0-11.35.4C202.24,135.58,201.84,136.56,202.17,137Z" style="fill:#263238"></path><path d="M182.56,153.7c.06-4.73,1.3-9.6,4.36-13.21,1.68-2,3.85-3.52,5.31-5.66,3.17-4.61,2.39-10.76,3.56-16.24a22.79,22.79,0,0,1,13.33-16c5.55-2.29,12-2.33,17.12-5.41,3.81-2.27,6.62-6,10.56-8.06,7.67-4,17-.39,24.61,3.66,1.76,5.82-1.72,11.1-5.07,16.17a21.1,21.1,0,0,1-15.07,9.2c-4.68.51-10.22-.28-13.37,3.23-3.3,3.7-1.65,9.85-4.31,14-3.8,6-13.2,4.23-19.13,8.11-4.58,3-6.29,8.73-8.43,13.77s-6,10.38-11.46,10.39C183.54,163.09,182.51,158.43,182.56,153.7Z" style="fill:#263238"></path><path d="M250.2,104.1a106.83,106.83,0,0,1,40.66,5.3c3.89,1.3,7.93,3,10.27,6.36,2.06,3,2.48,6.73,2.61,10.34.42,11.28-3.44,25.3-7.23,35.93l-13.66,9.11c-11-2-6.91-21-6.84-30.4a22.18,22.18,0,0,1-13.9-18.92A24.59,24.59,0,0,1,250.2,104.1Z" style="fill:#263238"></path><path d="M282.85,167.08c.11-6.46,8-8.1,13.66-5.05,3.13,1.67,5.6,5.17,5.54,12-.15,18.3-18.49,14.37-18.52,13.85C283.51,187.58,282.72,174.66,282.85,167.08Z" style="fill:#936760"></path><path d="M289.18,181c.08-.06.31.23.85.48a3.2,3.2,0,0,0,2.38.07c1.94-.69,3.6-3.75,3.71-7a10.39,10.39,0,0,0-.85-4.57,3.68,3.68,0,0,0-2.38-2.47,1.64,1.64,0,0,0-1.89.86c-.25.51-.13.88-.23.91s-.39-.31-.24-1.07a2.07,2.07,0,0,1,.73-1.14,2.42,2.42,0,0,1,1.77-.45c1.41.11,2.67,1.42,3.31,2.86a10.91,10.91,0,0,1,1.06,5.12c-.15,3.68-2.07,7.12-4.72,7.86a3.38,3.38,0,0,1-2.91-.51C289.21,181.46,289.11,181.06,289.18,181Z" style="fill:#6f4c47"></path><path d="M298.69,192a15.37,15.37,0,0,0,2.92-.33,10.85,10.85,0,0,0,3.15-1.12l-.22-.1a9.09,9.09,0,0,0,14.74,5.06l-.32,0a3.8,3.8,0,0,0,2.48,1.48,5.24,5.24,0,0,0,2.94-.39,4.82,4.82,0,0,0,2.28-2.05,6.32,6.32,0,0,0,.78-3,9.3,9.3,0,0,0-2.28-6,27.19,27.19,0,0,0-5-4.45v.42a6.43,6.43,0,0,0,2.68-4.47,9.28,9.28,0,0,0-.78-5.35,14.44,14.44,0,0,0-3.42-4.4,43.56,43.56,0,0,0-4.5-3.45l.05.41a6.82,6.82,0,0,0,1.54-5.38,9.88,9.88,0,0,0-2.32-5.32c-2.5-2.88-6-4.37-9.21-5.78l.16.31a12.13,12.13,0,0,0-13.89-14.32l.29.3a10.47,10.47,0,0,0-2.9-8.77,10.36,10.36,0,0,0-7.9-3.41l.24.22a10.23,10.23,0,0,0-4.53-7.75,10,10,0,0,0-7.73-1.74l.22.17a10.16,10.16,0,0,0-1.71-4.61,12.9,12.9,0,0,0-2.94-3.22,10.44,10.44,0,0,0-6.37-2.38l-.69,0-.64.08a9.19,9.19,0,0,0-1.15.19,12.65,12.65,0,0,0-1.72.58l-1,.48-.33.18a1.5,1.5,0,0,0,.35-.13l1-.44a13.51,13.51,0,0,1,1.72-.52,9,9,0,0,1,1.13-.17c.21,0,.41-.05.63-.06l.68,0a10.33,10.33,0,0,1,6.2,2.41,12.88,12.88,0,0,1,2.84,3.17,9.82,9.82,0,0,1,1.62,4.45V113l.21,0a9.7,9.7,0,0,1,7.42,1.72,9.84,9.84,0,0,1,4.31,7.44v.23h.23a9.8,9.8,0,0,1,7.51,3.29,10,10,0,0,1,2.75,8.34l-.06.35.36-.05a11.6,11.6,0,0,1,13.27,13.7l0,.22.2.09c3.22,1.4,6.63,2.88,9,5.63a9.31,9.31,0,0,1,2.2,5,6.31,6.31,0,0,1-1.4,5l-.21.23.26.18c3.09,2.13,6.2,4.39,7.74,7.62a8.82,8.82,0,0,1,.75,5,6,6,0,0,1-2.45,4.12l-.31.2.3.22a27.52,27.52,0,0,1,5,4.35,8.87,8.87,0,0,1,2.2,5.67,4.93,4.93,0,0,1-2.77,4.69c-1.69.77-3.87.52-4.89-.92l-.13-.19-.18.15a8.83,8.83,0,0,1-9.15,1.32,9,9,0,0,1-5-6.12l0-.2-.18.1a10.69,10.69,0,0,1-3.05,1.13,15.11,15.11,0,0,1-2.87.36,11.19,11.19,0,0,1-4.5-.64,4.21,4.21,0,0,1-2.19-1.68c-.32-.55-.39-.9-.42-.88a1.21,1.21,0,0,0,.07.24,2.49,2.49,0,0,0,.28.68,4.2,4.2,0,0,0,2.2,1.79" style="fill:#455a64"></path><path d="M360.16,165.63a6.36,6.36,0,0,0,.63-1.14,9.37,9.37,0,0,0,.79-3.66,9.22,9.22,0,0,0-1.78-5.65A9.68,9.68,0,0,0,353,151.3l.17.21a12.55,12.55,0,0,0-2.1-8.93,12.29,12.29,0,0,0-3.76-3.62,28.61,28.61,0,0,0-5.1-2.1,9.85,9.85,0,0,1-2.46-1.31,6.15,6.15,0,0,1-1.78-2.16c-.9-1.71-1.26-3.76-2.38-5.6a11.1,11.1,0,0,0-11.39-5l.33.29a14.64,14.64,0,0,0-17-15.78l.32.29a12.85,12.85,0,0,0-20.56-11h.29A17.64,17.64,0,0,0,281,93a26.41,26.41,0,0,0-6.62-1.18,30.77,30.77,0,0,0-10.79,1.27,22.09,22.09,0,0,0-6.3,3,13.86,13.86,0,0,0-1.43,1.15l-.46.43s.66-.55,2-1.46a22.89,22.89,0,0,1,6.3-2.85,30.76,30.76,0,0,1,10.69-1.14,25.62,25.62,0,0,1,6.51,1.21A17.12,17.12,0,0,1,287.24,97l.14.12.15-.11a12.36,12.36,0,0,1,19.74,10.62l0,.34.34-.06A14.11,14.11,0,0,1,324,123.07l0,.37.37-.08a10.6,10.6,0,0,1,10.83,4.71c1.06,1.71,1.43,3.75,2.37,5.55a6.62,6.62,0,0,0,1.93,2.33,10.48,10.48,0,0,0,2.58,1.36,28.79,28.79,0,0,1,5.05,2.05,11.74,11.74,0,0,1,3.64,3.47,12.18,12.18,0,0,1,2.09,8.62l0,.2H353a9.41,9.41,0,0,1,6.62,3.69,9,9,0,0,1,1.81,5.48,9.65,9.65,0,0,1-.69,3.62C360.37,165.24,360.13,165.62,360.16,165.63Z" style="fill:#455a64"></path><path d="M185.83,179.23a1.84,1.84,0,0,0,0-1.5,3.52,3.52,0,0,0-1.14-1.46,6.23,6.23,0,0,0-2.31-1,10.53,10.53,0,0,1-2.91-1,5.68,5.68,0,0,1-2.2-2.83,11.09,11.09,0,0,1-.66-4.16c0-1.51.14-3.11.06-4.82-.14-3.46-1.78-6.91-2.86-10.68a15.35,15.35,0,0,1-.54-6,7.32,7.32,0,0,1,3.05-5.29c1.81-1.24,4.08-1.69,6.3-2.49a11.24,11.24,0,0,0,3.19-1.68,7.37,7.37,0,0,0,2.17-3c1-2.32,1.11-4.85,1.56-7.28a12.2,12.2,0,0,1,1.1-3.53A5.59,5.59,0,0,1,193.2,120a20.47,20.47,0,0,1,5-.94,7.83,7.83,0,0,0,2.52-.77,5,5,0,0,0,1.94-1.8,18.31,18.31,0,0,0,1.68-4.76,11.25,11.25,0,0,1,2.08-4.23,11,11,0,0,1,7.76-4.2,11.39,11.39,0,0,1,7.89,2.42l.25.21.12-.3a17.41,17.41,0,0,1,10.38-9.9,16.23,16.23,0,0,1,6.07-.83A14.76,14.76,0,0,1,244,96a12.8,12.8,0,0,1,5.57,4.64,11.68,11.68,0,0,1,1,1.67c.1.18.18.32.24.44s.09.15.1.14l-.06-.16c-.06-.12-.12-.27-.21-.45a11.09,11.09,0,0,0-.93-1.72,12.83,12.83,0,0,0-5.59-4.82,14.71,14.71,0,0,0-5.18-1.22,16.1,16.1,0,0,0-6.21.79A17.78,17.78,0,0,0,222,105.41l.37-.1a11.83,11.83,0,0,0-8.22-2.56,11.57,11.57,0,0,0-8.15,4.37,11.91,11.91,0,0,0-2.19,4.42,17.52,17.52,0,0,1-1.62,4.61,5.35,5.35,0,0,1-4.08,2.32,20.77,20.77,0,0,0-5.16,1,6.18,6.18,0,0,0-2.84,2.74,12.65,12.65,0,0,0-1.14,3.68c-.46,2.48-.61,5-1.52,7.17a6.85,6.85,0,0,1-2,2.8,10.36,10.36,0,0,1-3,1.6c-2.16.79-4.49,1.25-6.41,2.56a7.21,7.21,0,0,0-2.27,2.52,9.4,9.4,0,0,0-1,3.14,15.68,15.68,0,0,0,.59,6.18c1.12,3.82,2.75,7.21,2.91,10.57.09,1.67-.05,3.27,0,4.81a11.48,11.48,0,0,0,.73,4.26,6,6,0,0,0,2.35,2.94,10.75,10.75,0,0,0,3,1,6.09,6.09,0,0,1,2.27,1,3.5,3.5,0,0,1,1.14,1.37A2.27,2.27,0,0,1,185.83,179.23Z" style="fill:#455a64"></path><path d="M149,152.71s.06-.11.17-.35l.45-1.05,1.69-4.05c.74-1.75,1.56-3.94,2.76-6.35a16.42,16.42,0,0,1,5.79-6.86c1.44-.87,3.12-1.48,4.8-2.33a11.82,11.82,0,0,0,2.42-1.58,6.27,6.27,0,0,0,1.74-2.48c.77-1.93.69-4.08,1.29-6.07a5.18,5.18,0,0,1,1.63-2.59,10,10,0,0,1,2.87-1.5,18.27,18.27,0,0,0,3.16-1.4,5.83,5.83,0,0,0,2.37-2.7c1-2.27.88-4.77,1.21-7.16a8.93,8.93,0,0,1,1.05-3.41,4.57,4.57,0,0,1,2.8-2c2.38-.62,5,.09,7.65-.46a6.53,6.53,0,0,0,3.42-2A16.85,16.85,0,0,0,198.39,95a35.11,35.11,0,0,1,1.84-3.25,7.19,7.19,0,0,1,2.57-2.43c2.13-1.1,4.62-.69,6.9-.28s4.69.87,7,.26a18.64,18.64,0,0,0,5.9-3A30.92,30.92,0,0,1,227.78,83a18.89,18.89,0,0,1,10.82-.89,20.32,20.32,0,0,1,8.23,3.74,22.4,22.4,0,0,1,4.68,5,24.86,24.86,0,0,1,2.09,3.83l.48,1a2.46,2.46,0,0,0,.18.35,2.19,2.19,0,0,0-.13-.37c-.11-.27-.25-.62-.42-1.06a24.21,24.21,0,0,0-2-3.91A22.59,22.59,0,0,0,247,85.64a20.36,20.36,0,0,0-8.34-3.87,19.26,19.26,0,0,0-11.08.84,32.12,32.12,0,0,0-5.32,3.27,18,18,0,0,1-5.74,3c-2.14.57-4.44.14-6.74-.28a23.48,23.48,0,0,0-3.59-.44,7.57,7.57,0,0,0-3.66.76,7.68,7.68,0,0,0-2.77,2.6,33.73,33.73,0,0,0-1.88,3.3,16.59,16.59,0,0,1-2,3.14,5.86,5.86,0,0,1-3.13,1.87c-2.47.53-5.09-.18-7.67.47a5.11,5.11,0,0,0-3.13,2.29,9.29,9.29,0,0,0-1.12,3.63c-.33,2.44-.24,4.91-1.15,7a5.34,5.34,0,0,1-2.16,2.48,18.47,18.47,0,0,1-3.08,1.36,10.21,10.21,0,0,0-3,1.6,5.59,5.59,0,0,0-1.78,2.82c-.61,2.11-.52,4.24-1.25,6.06a7.45,7.45,0,0,1-3.93,3.84c-1.64.84-3.33,1.47-4.8,2.38a16.48,16.48,0,0,0-5.86,7.05c-1.2,2.45-2,4.64-2.7,6.41s-1.21,3.12-1.58,4.09l-.41,1.07A2.1,2.1,0,0,0,149,152.71Z" style="fill:#455a64"></path><path d="M167.48,132.65a1.1,1.1,0,0,0-.34,0,1.94,1.94,0,0,0-1,.26,4,4,0,0,0-1.66,3.33,10,10,0,0,0,.53,2.71,10.94,10.94,0,0,1,.63,3.13,7.13,7.13,0,0,1-1.12,3.44c-.65,1.13-1.5,2.26-2.17,3.6a5.26,5.26,0,0,0-.23,4.62c.66,1.53,1.86,2.77,2.49,4.32a6.83,6.83,0,0,1-.25,5c-.63,1.7-1.57,3.37-2.17,5.26a8.1,8.1,0,0,0-.44,3,7.33,7.33,0,0,0,.84,3,35,35,0,0,0,3.73,5,8.39,8.39,0,0,1,2.21,5.69c-.13,2.12-1.22,4.11-1.9,6.27a9.46,9.46,0,0,0-.51,3.39,7.64,7.64,0,0,0,1,3.24,27.87,27.87,0,0,0,4.2,5,14.83,14.83,0,0,1,3.44,5,44.36,44.36,0,0,0,2.18,5.59,6.57,6.57,0,0,0,2,2.22,8.47,8.47,0,0,0,2.64,1.12,21.43,21.43,0,0,1,2.57.78,8.78,8.78,0,0,1,2.18,1.33,18.25,18.25,0,0,1,3.19,3.76c.9,1.31,1.75,2.61,2.68,3.77a12.49,12.49,0,0,0,6.59,4.36,13.41,13.41,0,0,0,6,.28,11.85,11.85,0,0,0,3.59-1.25,8.77,8.77,0,0,0,1.11-.71,13.81,13.81,0,0,1-4.73,1.74,13.31,13.31,0,0,1-5.87-.36,12.19,12.19,0,0,1-6.37-4.31c-.91-1.14-1.74-2.43-2.64-3.77a19,19,0,0,0-3.24-3.87,9.53,9.53,0,0,0-2.29-1.41,20.46,20.46,0,0,0-2.63-.81,8.11,8.11,0,0,1-2.49-1.06,6.33,6.33,0,0,1-1.81-2.06,44.8,44.8,0,0,1-2.12-5.53,15.36,15.36,0,0,0-3.55-5.19,27.22,27.22,0,0,1-4.1-4.87,7,7,0,0,1-.95-3,9,9,0,0,1,.49-3.18c.65-2.1,1.78-4.11,1.92-6.41a6.88,6.88,0,0,0-.61-3.29,13.62,13.62,0,0,0-1.72-2.76,36,36,0,0,1-3.69-4.94,6.92,6.92,0,0,1-.79-2.77,7.72,7.72,0,0,1,.41-2.82c.57-1.82,1.5-3.49,2.14-5.24a7.3,7.3,0,0,0,.22-5.39c-.7-1.66-1.9-2.89-2.52-4.32a4.8,4.8,0,0,1,.19-4.28c.62-1.3,1.46-2.43,2.12-3.6A7.36,7.36,0,0,0,166,142a11.32,11.32,0,0,0-.69-3.21,10,10,0,0,1-.56-2.63,3.82,3.82,0,0,1,1.5-3.23A2.26,2.26,0,0,1,167.48,132.65Z" style="fill:#455a64"></path><path d="M359.67,165.06a7.09,7.09,0,0,0,1.44-.22,10.05,10.05,0,0,0,7.35-7.4,10.28,10.28,0,0,0-1.91-8.55,26.25,26.25,0,0,0-3.83-3.57,12.21,12.21,0,0,1-3.62-4.18,8.08,8.08,0,0,1,0-5.81c.61-2,1.58-4,2.15-6.15A17.93,17.93,0,0,0,346.66,107l.19.42a9.15,9.15,0,0,0,1.39-4.07,11.4,11.4,0,0,0-.48-4.33,12.74,12.74,0,0,0-2-3.92,14.54,14.54,0,0,0-3.25-3.06c-3.7-2.57-8.07-3.67-12.24-4.28a42.9,42.9,0,0,0-12.3.06l.3.24a13,13,0,0,0-7.87-10.87,13.36,13.36,0,0,0-6.48-.93A21.62,21.62,0,0,0,298,78.16a12,12,0,0,1-2.78.79,7.57,7.57,0,0,1-2.77-.16,22.24,22.24,0,0,1-4.94-2.12,19.82,19.82,0,0,0-4.72-1.89,15.82,15.82,0,0,0-4.64-.39,15.31,15.31,0,0,0-7.48,2.43,15.79,15.79,0,0,0-4.26,4.07,14.87,14.87,0,0,0-1.77,3.23,8.29,8.29,0,0,0-.4,1.21s.15-.41.49-1.17A15.92,15.92,0,0,1,270.79,77a15.15,15.15,0,0,1,7.36-2.32,15.86,15.86,0,0,1,4.54.42A19.76,19.76,0,0,1,287.3,77a22.88,22.88,0,0,0,5,2.18,7.94,7.94,0,0,0,2.92.18,12.24,12.24,0,0,0,2.9-.8,21.07,21.07,0,0,1,5.8-1.82,12.79,12.79,0,0,1,6.22.91,12.51,12.51,0,0,1,7.54,10.46l0,.28.28,0a42.23,42.23,0,0,1,12.15,0c4.12.6,8.42,1.69,12,4.18a14.4,14.4,0,0,1,3.13,3,12,12,0,0,1,1.94,3.75,10.88,10.88,0,0,1,.46,4.11,8.53,8.53,0,0,1-1.3,3.82l-.22.35.41.07a17.43,17.43,0,0,1,14.2,21.49c-.53,2.14-1.5,4.1-2.11,6.14a8.49,8.49,0,0,0,0,6.12,12.71,12.71,0,0,0,3.76,4.3,25.34,25.34,0,0,1,3.81,3.5,10,10,0,0,1,1.91,8.26,9.56,9.56,0,0,1-3.44,5.47,10.18,10.18,0,0,1-3.67,1.9C360.17,165,359.66,165,359.67,165.06Z" style="fill:#263238"></path><path d="M160.44,120.41a1.6,1.6,0,0,0,0-.35c0-.26,0-.6.05-1,0-.94.1-2.27.17-4s.24-3.82.59-6.23a35.06,35.06,0,0,1,2-8,23.45,23.45,0,0,1,5.43-8.28,17.47,17.47,0,0,1,4.54-3.11,50.34,50.34,0,0,1,5.6-1.91,16.59,16.59,0,0,0,5.63-2.83,26.33,26.33,0,0,0,4.43-4.86c1.33-1.77,2.59-3.64,4.08-5.35a18.62,18.62,0,0,1,5.29-4.31c4.08-2.25,8.68-3,13.05-3.45a86.08,86.08,0,0,1,12.72-.1A65.1,65.1,0,0,1,245,71.4,46.27,46.27,0,0,1,257.32,79c.63.58,1.22,1.07,1.69,1.53s.85.86,1.17,1.2l.72.73.27.24a2.53,2.53,0,0,0-.22-.28c-.18-.19-.4-.45-.69-.77l-1.13-1.24c-.46-.48-1-1-1.67-1.57a44.88,44.88,0,0,0-12.3-7.8,64.8,64.8,0,0,0-21-4.91,84.36,84.36,0,0,0-12.8.07c-4.41.39-9.08,1.2-13.28,3.5a19.23,19.23,0,0,0-5.43,4.44c-1.52,1.74-2.78,3.62-4.11,5.39a25.63,25.63,0,0,1-4.32,4.76,16,16,0,0,1-5.46,2.76,48.84,48.84,0,0,0-5.65,2,17.6,17.6,0,0,0-4.65,3.22,23.85,23.85,0,0,0-5.48,8.47,34.77,34.77,0,0,0-2,8.1c-.32,2.43-.43,4.54-.49,6.26s-.07,3.06-.07,4c0,.43,0,.77,0,1A1.35,1.35,0,0,0,160.44,120.41Z" style="fill:#263238"></path><path d="M222.3,196.5l16.76-4.67c.92,3.51,1.4,7.73-.29,10.94-1.29,2.43-4.54,3.67-7.24,4.21a8.2,8.2,0,0,1-5.81-1.84,11.18,11.18,0,0,1-3.42-8.64" style="fill:#6f4c47"></path><path d="M228,206.07a10.19,10.19,0,0,1,1.55.27,8.24,8.24,0,0,0,4.09-.54,8.86,8.86,0,0,0,4.49-4,10.8,10.8,0,0,0,1.27-7.25,12.18,12.18,0,0,0-.76-2.55l.62.29c-4.74,1.38-9,2.4-12,3.14a28.52,28.52,0,0,1-4.91,1,24.32,24.32,0,0,1,4.73-1.7c3-.92,7.18-2.06,11.89-3.47l.44-.13.18.43a13.34,13.34,0,0,1,.84,2.77,11.56,11.56,0,0,1-1.46,7.91,9.38,9.38,0,0,1-5.08,4.18,7.84,7.84,0,0,1-4.42.25A3.19,3.19,0,0,1,228,206.07Z" style="fill:#263238"></path><path d="M270.46,178.12l-16.2,1.81a23.55,23.55,0,0,1-11-.7l-16.61-5.36c-4-1.37-7.38-1.43-10.62,1.29l-9,8.32a17.88,17.88,0,0,1-5.91,3.28L194.33,189s-2.25,48.11,40.15,45.52,48.35-44.9,48.35-44.9Zm-43.68,49.56c-21.75-2-26.08-31.22-26.08-31.22s7.82-2.36,11.89-5.9c3.72-3.25,11.28-9.82,22.31-3.72,11.29,6.24,32.31,1.4,32.31,1.4L274,194.4C267.11,202.82,253.43,230.09,226.78,227.68Z" style="fill:#455a64"></path><path d="M226.78,227.68c-21.75-2-26.08-31.22-26.08-31.22s7.82-2.36,11.89-5.9c3.72-3.25,11.28-9.82,22.31-3.72,11.29,6.24,32.31,1.4,32.31,1.4L274,194.4C267.11,202.82,253.43,230.09,226.78,227.68Z" style="fill:#fff;opacity:0.2"></path><path d="M282.81,167a10.06,10.06,0,0,1-1.54,1.86c-1,1.1-2.44,2.57-4.1,4.13s-3.23,2.89-4.39,3.82a10.44,10.44,0,0,1-2,1.4,11,11,0,0,1,1.72-1.68l4.27-3.92c1.57-1.5,3-2.85,4.2-4A11.72,11.72,0,0,1,282.81,167Z" style="fill:#455a64"></path><path d="M293,188a26.28,26.28,0,0,1-5.18,1.09,27.06,27.06,0,0,1-5.27.57,27,27,0,0,1,5.19-1.08A27.46,27.46,0,0,1,293,188Z" style="fill:#455a64"></path><path d="M239.8,227.73a2.63,2.63,0,0,1-.64.18c-.43.09-1,.25-1.87.36a29.87,29.87,0,0,1-7,.23,32.71,32.71,0,0,1-4.8-.76,35.28,35.28,0,0,1-5.31-1.74,32.11,32.11,0,0,1-5.41-3,22.39,22.39,0,0,1-5-4.42,43.89,43.89,0,0,1-6.33-11.08,61,61,0,0,1-3.1-9.95,38.51,38.51,0,0,1-.93-7,16.47,16.47,0,0,1,0-1.91,2.94,2.94,0,0,1,.06-.67c.05,0,0,.92.13,2.57a44.31,44.31,0,0,0,1.09,6.89,63,63,0,0,0,3.19,9.84,44,44,0,0,0,6.28,10.93,22.2,22.2,0,0,0,4.83,4.34,33.11,33.11,0,0,0,5.32,2.95,35.26,35.26,0,0,0,5.22,1.76,33.39,33.39,0,0,0,4.74.81,31.7,31.7,0,0,0,7-.06C238.9,227.88,239.79,227.68,239.8,227.73Z" style="fill:#263238"></path><path d="M280.29,199.44a5.54,5.54,0,0,1-.91-.63c-.56-.43-1.35-1.08-2.32-1.89-1.93-1.64-4.52-4-7.23-6.74s-5-5.38-6.62-7.33c-.8-1-1.43-1.79-1.85-2.35a4.41,4.41,0,0,1-.61-.92,5.08,5.08,0,0,1,.77.79l2,2.24c1.67,1.89,4,4.47,6.71,7.21s5.24,5.12,7.11,6.82l2.2,2A4.71,4.71,0,0,1,280.29,199.44Z" style="fill:#263238"></path><path d="M227.56,222.76s-.13,0-.35,0a6.1,6.1,0,0,1-1-.08,15.4,15.4,0,0,1-3.56-.92,27.55,27.55,0,0,1-10-6.78,31.45,31.45,0,0,1-6.06-10.46,32.64,32.64,0,0,1-1.07-3.51,6.06,6.06,0,0,1-.24-1.32,8,8,0,0,1,.43,1.27c.26.82.66,2,1.22,3.43a33.51,33.51,0,0,0,6.1,10.23,28.73,28.73,0,0,0,9.74,6.79A24.94,24.94,0,0,0,227.56,222.76Z" style="fill:#fff"></path><path d="M243.09,219.91a10.47,10.47,0,0,1-8.29,2.45c0-.16,2-.14,4.26-.83S243,219.78,243.09,219.91Z" style="fill:#fff"></path><path d="M150.12,313.59s3.1-24.78,15-37.17,59.67-28.87,59.67-28.87,4.33,18.64,16.3,22.9c12.7,4.53,27,2.83,36.34-8,9-10.43,13.47-23.84,13.47-23.84s47.06,5.54,67.48,24.56c13.94,13,19.7,83.5,19.7,83.5L325,352.15l20.9,115.58-162.9,0,4.17-108.88-40.37,5.77Z" style="fill:#CD1624"></path><path d="M296.74,381.92a2.5,2.5,0,0,1-.58.15l-1.68.33-1.22.22c-.45.07-.94.11-1.46.17-1.05.1-2.25.28-3.58.29l-2.09.08c-.73,0-1.49,0-2.27-.06-1.57,0-3.23-.21-5-.39a56.94,56.94,0,0,1-21.56-7.36c-1.5-.94-2.94-1.79-4.19-2.74-.63-.47-1.26-.89-1.82-1.35l-1.61-1.33c-1.05-.82-1.89-1.7-2.66-2.42-.38-.37-.74-.7-1.05-1l-.83-.92L244,364.27a2.32,2.32,0,0,1-.36-.47,3.51,3.51,0,0,1,.44.4l1.2,1.22.85.89c.33.31.7.63,1.08,1,.79.7,1.64,1.55,2.69,2.35l1.62,1.3c.57.44,1.2.85,1.83,1.3,1.25.94,2.69,1.77,4.18,2.68a62.65,62.65,0,0,0,10.34,4.7,63.52,63.52,0,0,0,11.05,2.6c1.74.19,3.38.41,4.94.44.78,0,1.53.09,2.25.08l2.07,0c1.33,0,2.52-.14,3.57-.22.52,0,1-.07,1.46-.12l1.22-.18,1.69-.23A2.45,2.45,0,0,1,296.74,381.92Z" style="fill:#263238"></path><path d="M354.47,262.09a15.74,15.74,0,0,1-1.79-.6,27.93,27.93,0,0,0-4.95-1.22,22.06,22.06,0,0,0-7.51.17,23.9,23.9,0,0,0-4.26,1.27,28.61,28.61,0,0,0-4.24,2.21,32.08,32.08,0,0,0-7,6,35.31,35.31,0,0,0-4.34,6.19,36,36,0,0,0-2.13,4.65c-.43,1.13-.64,1.77-.68,1.76a1.69,1.69,0,0,1,.1-.48,12.86,12.86,0,0,1,.39-1.35,30.28,30.28,0,0,1,2-4.75,33.86,33.86,0,0,1,4.3-6.34,31.79,31.79,0,0,1,7.1-6.11,27.86,27.86,0,0,1,4.33-2.24,24,24,0,0,1,4.36-1.27,21.93,21.93,0,0,1,7.66-.06,23.85,23.85,0,0,1,5,1.39c.57.22,1,.43,1.29.56A2.22,2.22,0,0,1,354.47,262.09Z" style="fill:#263238"></path><path d="M378.12,346.71l-.32.05-.93.13-3.62.42L360,348.75l-43.9,4.57-2.28.23-.29,0v-.29c.35-16.72.71-31.76,1-42.61.16-5.42.3-9.8.43-12.82.07-1.49.13-2.65.17-3.48,0-.37.06-.67.08-.9a1.44,1.44,0,0,1,0-.31c-.05,2.78-.55,27-1.23,60.13l-.29-.27,2.28-.23,43.91-4.42,13.32-1.28,3.62-.32.95-.07Z" style="fill:#263238"></path><g style="opacity:0.30000000000000004"><path d="M245.21,366a34.11,34.11,0,0,0,53,15.79C279.39,384.54,259,379,245.21,366Z"></path></g><path d="M316.89,282.59s-.29,0-.83-.07l-2.42-.25c-1.07-.06-2.39-.09-3.95-.11a47.58,47.58,0,0,0-5.38.43,48.84,48.84,0,0,0-14.11,4.18c-.67.27-1.3.65-2,1s-1.33.68-2,1.08c-1.29.83-2.68,1.62-4,2.63a43.5,43.5,0,0,0-7.62,6.94,49.1,49.1,0,0,0-3.42,4.38,52.16,52.16,0,0,0-2.9,5,21.6,21.6,0,0,0-1.87,5.69,12.12,12.12,0,0,0,.45,6.11,9.26,9.26,0,0,0,3.84,4.92,7.43,7.43,0,0,0,6.3.58,11.77,11.77,0,0,0,5.38-4,13.75,13.75,0,0,0,2.7-6.38A20.18,20.18,0,0,0,282,300.84a24.44,24.44,0,0,0-4.92-5.69,25.82,25.82,0,0,0-6.55-4,39.83,39.83,0,0,0-15.46-3,68.57,68.57,0,0,0-16.22,1.9,54.14,54.14,0,0,0-15.14,6,40.66,40.66,0,0,0-6.37,4.79,31.87,31.87,0,0,0-5,6,19.3,19.3,0,0,0-2.93,7.05,14.58,14.58,0,0,0,.3,7.4,9.28,9.28,0,0,0,1.83,3.13,8,8,0,0,0,3,2,9.29,9.29,0,0,0,6.93-.32,10.21,10.21,0,0,0,5-4.6,13.52,13.52,0,0,0,1.51-6.57,19.42,19.42,0,0,0-4.81-11.92,38.61,38.61,0,0,0-4.37-4.48c-.76-.69-1.58-1.29-2.37-1.92s-1.57-1.26-2.4-1.79a58.52,58.52,0,0,0-9.9-5.57,62.45,62.45,0,0,0-18.85-4.92,60.21,60.21,0,0,0-14.75.35c-1,.1-1.94.35-2.83.5s-1.71.3-2.46.52c-1.51.43-2.81.7-3.81,1.06l-2.31.78-.79.25.77-.3,2.3-.83c1-.38,2.3-.67,3.8-1.11.75-.23,1.59-.36,2.47-.55s1.82-.42,2.83-.52a59.15,59.15,0,0,1,14.8-.44,62,62,0,0,1,19,4.88,58.16,58.16,0,0,1,10,5.57c.84.54,1.62,1.17,2.42,1.8s1.62,1.24,2.4,1.93a38.7,38.7,0,0,1,4.43,4.52,23.8,23.8,0,0,1,3.46,5.57,17.18,17.18,0,0,1,1.46,6.61,13.79,13.79,0,0,1-1.55,6.8,10.68,10.68,0,0,1-5.25,4.82,9.73,9.73,0,0,1-7.29.34,8.55,8.55,0,0,1-3.14-2.13,9.86,9.86,0,0,1-1.94-3.31,15,15,0,0,1-.32-7.66,19.71,19.71,0,0,1,3-7.22,32.6,32.6,0,0,1,5.08-6.12,40.64,40.64,0,0,1,6.46-4.87,54.82,54.82,0,0,1,15.29-6.06,69.07,69.07,0,0,1,16.34-1.92,40.53,40.53,0,0,1,15.66,3,26.48,26.48,0,0,1,6.68,4.08,25.12,25.12,0,0,1,5,5.8,20.66,20.66,0,0,1,3.22,14.26,13.34,13.34,0,0,1-8.41,10.71,8.52,8.52,0,0,1-3.43.44,7.52,7.52,0,0,1-3.24-1.06,9.75,9.75,0,0,1-4-5.17,12.4,12.4,0,0,1-.46-6.32,21.54,21.54,0,0,1,1.92-5.79,50.91,50.91,0,0,1,2.94-5.07,49.74,49.74,0,0,1,3.46-4.4,44.44,44.44,0,0,1,7.7-7c1.3-1,2.7-1.79,4-2.63.66-.4,1.35-.72,2-1.08s1.3-.72,2-1a48.46,48.46,0,0,1,14.21-4.11,47,47,0,0,1,5.39-.39c1.57,0,2.9.09,4,.16l2.42.31Z" style="fill:#fff"></path><path d="M374.38,314.85a21.9,21.9,0,0,1-3.58,1.94A25.93,25.93,0,0,1,360,319.06a20.21,20.21,0,0,1-7.52-1.59,18.61,18.61,0,0,1-7-5.36,15.3,15.3,0,0,1-3.45-9.06,8.87,8.87,0,0,1,1.28-5.05,5.62,5.62,0,0,1,4.64-2.62,4.41,4.41,0,0,1,2.61,1,5.64,5.64,0,0,1,1.61,2.2,6.74,6.74,0,0,1,0,5.2,12.34,12.34,0,0,1-2.88,4.11,33.62,33.62,0,0,1-3.69,3.06,41,41,0,0,1-15,6.72,40.49,40.49,0,0,1-11.05.89,30,30,0,0,1-3-.33l-.78-.12-.26-.06a.79.79,0,0,1,.27,0l.78.07c.68.09,1.7.16,3,.23a41.94,41.94,0,0,0,11-1.05,41,41,0,0,0,14.78-6.75,32.82,32.82,0,0,0,3.61-3,11.65,11.65,0,0,0,2.76-3.95,6.22,6.22,0,0,0,0-4.81,5.08,5.08,0,0,0-1.46-2,3.83,3.83,0,0,0-2.29-.86,5.13,5.13,0,0,0-4.2,2.38,8.48,8.48,0,0,0-1.2,4.76,14.88,14.88,0,0,0,3.31,8.77,18.37,18.37,0,0,0,6.8,5.27,19.85,19.85,0,0,0,7.35,1.61,26.29,26.29,0,0,0,10.74-2.09c1.2-.5,2.11-1,2.72-1.28l.69-.36C374.29,314.88,374.37,314.84,374.38,314.85Z" style="fill:#fff"></path><polygon points="315 299.44 309.24 368.71 316.17 368.71 319.36 353.35 313.75 353.29 315 299.44" style="opacity:0.30000000000000004"></polygon><path d="M181.25,338.13c-.14,0-2.75-7.32-5.83-16.45s-5.48-16.57-5.34-16.62,2.74,7.32,5.83,16.45S181.38,338.08,181.25,338.13Z" style="fill:#263238"></path><path d="M184.3,318c-2.18,15.57-6.15,30-2.46,45.24,4.66,19.3,16.66,31.71,32.95,38.61" style="fill:#CD1624"></path><path d="M369,347.64s-14.77,79.67-16.68,86.93-5,27-25.25,30.87c-24,4.59-137.54,2.31-137.54,2.31l18.09-33,98.95-19.66,9.56-61.83Z" style="fill:#936760"></path><path d="M121,326.65s15.13,50.92,21.41,72.93c6.67,23.38,21.25,76.47,52.33,67,23.64-7.18,16.68-37.82,16.68-37.82L187.2,358.87l-19.65,2.68-17.43-46.69Z" style="fill:#936760"></path><path d="M203.13,431c-.3,0,1.64-4.44,0-11.52a35.71,35.71,0,0,0-5-11.44,101.26,101.26,0,0,0-9.8-12,99.88,99.88,0,0,1-9.85-12.24,76.6,76.6,0,0,1-6.18-11.25,70.57,70.57,0,0,1-3-8.09,12.38,12.38,0,0,1-.73-3.09,19.07,19.07,0,0,1,1.2,2.93c.74,1.89,1.81,4.61,3.38,7.87a84.74,84.74,0,0,0,6.34,11,109.77,109.77,0,0,0,9.82,12,95.09,95.09,0,0,1,9.84,12.24A35.28,35.28,0,0,1,204,419.3a22.37,22.37,0,0,1,.1,8.68,15.18,15.18,0,0,1-.65,2.28C203.29,430.76,203.17,431,203.13,431Z" style="fill:#6f4c47"></path><path d="M150.12,314.86s.11-20.34-1.68-26.07l-14.37-32.12s-4.62-2.45-5.47,4.14c-.5,3.88.76,10.49.76,10.49l2.57,10.14-4.87-4-11.2-21s-7.71-15.27-9.71-12.84-1.34,7.33,2,13.92l7.54,14.95s1.14,2.65-2.82-1.2-12.57-22.5-14.35-24.83-4.22-9.16-8.08-7.62,1.08,9.74,1.08,9.74l12.35,27.66S96.7,265.8,95.41,264s-4.27-7.76-6.62-10.82-4.9-4.24-6.61-3.5a3.44,3.44,0,0,0-2.13,4.21L93.23,276.8s6.59,10.25,6.58,11-5.75-3.39-5.75-3.39l-5.52-7s-6-10.55-9.12-10-2.57,2.9-2.57,2.9L88,289.54l16.11,20.72,17.22,17.11,10-3.21Z" style="fill:#936760"></path><path d="M211.39,428.8a1.71,1.71,0,0,1,.13.52c.07.4.16.9.26,1.5a55.46,55.46,0,0,1,.56,5.58,46.75,46.75,0,0,1-.31,8.31,33.71,33.71,0,0,1-2.8,9.8,23,23,0,0,1-2.71,4.56,20.18,20.18,0,0,1-3.54,3.45,25,25,0,0,1-7.38,3.84,28.87,28.87,0,0,1-5.48,1.24c-.65.1-1.17.12-1.51.15a1.78,1.78,0,0,1-.53,0s.72-.13,2-.35a33.28,33.28,0,0,0,5.39-1.38,25.66,25.66,0,0,0,7.21-3.88,20.32,20.32,0,0,0,3.43-3.39,22.81,22.81,0,0,0,2.64-4.46,34.11,34.11,0,0,0,2.79-9.65,47.76,47.76,0,0,0,.42-8.23c-.06-2.35-.27-4.25-.39-5.56-.06-.61-.12-1.11-.16-1.51A3.59,3.59,0,0,1,211.39,428.8Z" style="fill:#6f4c47"></path><path d="M127,310a1.54,1.54,0,0,1-.25-.34,8.53,8.53,0,0,1-.62-1,15.55,15.55,0,0,1-1.46-4.19,19.06,19.06,0,0,1-.1-6.58,22.52,22.52,0,0,1,2.71-7.58,32.37,32.37,0,0,1,5.61-7.17l0,.26a35,35,0,0,1-2.32-8c-.16-1-.25-1.79-.29-2.34a3.38,3.38,0,0,1,0-.84,3.45,3.45,0,0,1,.16.82c.09.54.21,1.33.41,2.31a39.36,39.36,0,0,0,2.48,7.88l.06.14-.11.12a32.75,32.75,0,0,0-5.49,7.09,22.69,22.69,0,0,0-2.69,7.4,18.93,18.93,0,0,0,0,6.43A20.43,20.43,0,0,0,127,310Z" style="fill:#6f4c47"></path><path d="M184.86,311.42c-1,18.9-7.64,36.31-3.36,50.71s12.33,29.16,26.08,35.68" style="fill:#CD1624"></path><path d="M207.58,397.81l-.23-.1-.66-.31a24.15,24.15,0,0,1-2.49-1.34,37.31,37.31,0,0,1-8.1-6.46,55.34,55.34,0,0,1-8.87-12.55,71.05,71.05,0,0,1-3.74-8.29,67.32,67.32,0,0,1-2.92-9.33c-1.26-6.63-.67-13.09.09-18.81s1.76-10.85,2.44-15.17,1.12-7.82,1.38-10.25c.11-1.19.2-2.12.26-2.8l.08-.73a1,1,0,0,1,0-.25.62.62,0,0,1,0,.25c0,.2,0,.44,0,.73,0,.65-.08,1.6-.16,2.82-.21,2.43-.57,6-1.23,10.29s-1.56,9.45-2.32,15.18-1.3,12.11-.06,18.64a67.86,67.86,0,0,0,2.88,9.25,74.61,74.61,0,0,0,3.69,8.25,55.6,55.6,0,0,0,8.72,12.51,38.89,38.89,0,0,0,7.94,6.55,27.42,27.42,0,0,0,2.42,1.41l.64.37A.87.87,0,0,1,207.58,397.81Z" style="fill:#263238"></path></g></svg>